<svg width="257" height="45" viewBox="0 0 257 45" fill="none" xmlns="http://www.w3.org/2000/svg">
<g clip-path="url(#clip0_795_1999)">
<path fill-rule="evenodd" clip-rule="evenodd" d="M76.36 17.12V0H106.42V9.97H86.36V17.12H104.26V27.13H86.36V34.13H106.42V44.26H95.55C92.43 44.26 89.3 44.26 86.14 44.25C82.92 44.25 79.67 44.23 76.36 44.23V17.13V17.12Z" fill="#2350A4"/>
<path fill-rule="evenodd" clip-rule="evenodd" d="M153.45 44.22V0H183.51V9.97H163.45V17.12H181.35V27.13H163.45V34.13H183.51V44.26H172.64C169.52 44.26 166.39 44.26 163.23 44.25C160.01 44.25 156.76 44.23 153.45 44.23V44.22Z" fill="#444444"/>
<path fill-rule="evenodd" clip-rule="evenodd" d="M135.54 21.99L148.49 0.0400391H136.4L129.63 11.76L122.86 0.0400391H110.78L123.72 22L110.78 44.39H122.35L129.63 32.03L136.91 44.39H148.49L135.55 22L135.54 21.99Z" fill="#2350A4"/>
<path fill-rule="evenodd" clip-rule="evenodd" d="M234.94 0.539886C229.89 0.839886 226.36 5.42989 226.35 10.4499V33.6899C226.35 40.2199 230.75 44.6399 237.22 44.6699C240.27 44.6699 253.27 44.6699 256.35 44.6599V34.5399H236.52V10.3999H256.35V0.329886C252.51 0.289886 238.75 0.309886 234.94 0.539886Z" fill="#444444"/>
<path fill-rule="evenodd" clip-rule="evenodd" d="M189.76 10.4499V9.42989H189.81C190.25 4.81989 193.64 0.819886 198.35 0.539886C202.16 0.309886 215.91 0.289886 219.76 0.329886V10.3999H199.93V17.4999C204.51 17.5299 209.19 17.5899 211.17 17.7099C216.22 18.0099 219.75 22.5999 219.76 27.6199V34.5599C219.76 39.5799 216.22 44.1699 211.17 44.4699C207.36 44.6999 193.6 44.7199 189.76 44.6799V34.7399H209.59V27.5699H196.97C192.99 27.5699 189.76 24.3399 189.76 20.3699V10.4499Z" fill="#444444"/>
<path d="M35.77 23.1799H27.17L33.11 12.6699H26.28C26.28 12.6699 26.26 12.6699 26.24 12.6699H22.63C19.75 12.6699 17.1 14.2099 15.67 16.7099L0 44.2199H10.61C13.49 44.2199 16.15 42.6699 17.57 40.1599L21.51 33.1899H39.41V23.1799H35.76H35.77Z" fill="#EB3349"/>
<path d="M61.46 0.0700684C57.14 0.0700684 52.82 0.0700684 48.5 0.0700684H46.79H41.22H37.24H29.37C26.5 0.0700684 23.84 1.61007 22.42 4.11007L19.02 10.0801H31.59H35.57H38.04H42.03V44.2301H51.82V27.2201C52.88 27.2201 53.9 27.2201 54.9 27.2201C57.13 27.2201 59.22 27.2301 61.31 27.2001H61.82C67.59 27.0801 72.16 22.3001 72.04 16.5301V10.7301C72.04 4.42007 67.79 0.130068 61.48 0.0700684H61.46ZM61.81 17.1101H51.91V10.2001H61.81V17.1101Z" fill="#2350A4"/>
</g>
<defs>
<clipPath id="clip0_795_1999">
<rect width="256.36" height="44.72" fill="white"/>
</clipPath>
</defs>
</svg>
